{"title":"The.Universe.S07E03.Our.Place.In.The.Milky.Way.720p.HDTV.x264-DH","uid":7312678,"size":1415206289,"categoryP":"video","categoryS":"hd___tv_shows","magnet":"?xt=urn:btih:9814c30f47f1c0f793571d7deac9bfe937bb2825&amp;dn=The.Universe.S07E03.Our.Place.In.The.Milky.Way.720p.HDTV.x264-DH&amp;tr=udp%3A%2F%2Ftracker.openbittorrent.com%3A80&amp;tr=udp%3A%2F%2Fopen.demonii.com%3A1337&amp;tr=udp%3A%2F%2Ftracker.coppersurfer.tk%3A6969&amp;tr=udp%3A%2F%2Fexodus.desync.com%3A6969","seeders":0,"leechers":0,"uploader":"k4l3ss1n","files":3,"time":1338393807,"description":" &lt;a href=&quot;http://www.history.com/shows/the-universe&quot; rel=&quot;nofollow&quot; target=&quot;_NEW&quot;&gt;http://www.history.com/shows/the-universe&lt;/a&gt;\n--\n\nGeneral\nUnique ID : 250161085417840569210041525667171796141 (0xBC3345C4B35BA423AFA4882A627E04AD)\nComplete name : The.Universe.S07E03.Our.Place.In.The.Milky.Way.720p.HDTV.x264-DHD.mkv\nFormat : Matroska\nFormat version : Version 2\nFile size : 1.32 GiB\nDuration : 43mn 59s\nOverall bit rate : 4 289 Kbps\nEncoded date : UTC 2012-05-30 01:31:00\nWriting application : mkvmerge v4.8.0 ('SALVATION') built on May 24 2011 03:12:58\nWriting library : libebml v1.2.0 + libmatroska v1.1.0\n\nVideo\nID : 1\nFormat : AVC\nFormat/Info : Advanced Video Codec\nFormat profile : &lt;a class=&quot;__cf_email__&quot; href=&quot;/cdn-cgi/l/email-protection&quot; data-cfemail=&quot;5f173638371f136b716e&quot;&gt;[email&amp;#160;protected]&lt;/a&gt;&lt;script cf-hash='f9e31' type=&quot;text/javascript&quot;&gt;\n/* &lt;![CDATA[ */!function(){try{var t=&quot;currentScript&quot;in document?document.currentScript:function(){for(var t=document.getElementsByTagName(&quot;script&quot;),e=t.length;e--;)if(t[e].getAttribute(&quot;cf-hash&quot;))return t[e]}();if(t&amp;&amp;t.previousSibling){var e,r,n,i,c=t.previousSibling,a=c.getAttribute(&quot;data-cfemail&quot;);if(a){for(e=&quot;&quot;,r=parseInt(a.substr(0,2),16),n=2;a.length-n;n+=2)i=parseInt(a.substr(n,2),16)^r,e+=String.fromCharCode(i);e=document.createTextNode(e),c.parentNode.replaceChild(e,c)}}}catch(u){}}();/* ]]&gt; */&lt;/script&gt;\nFormat settings, CABAC : Yes\nFormat settings, ReFrames : 5 frames\nCodec ID : V_MPEG4/ISO/AVC\nDuration : 43mn 59s\nBit rate : 3 820 Kbps\nWidth : 1 280 pixels\nHeight : 720 pixels\nDisplay aspect ratio : 16:9\nFrame rate : 23.976 fps\nColor space : YUV\nChroma subsampling : 4:2:0\nBit depth : 8 bits\nScan type : Progressive\nBits/(Pixel*Frame) : 0.173\nStream size : 1.17 GiB (89%)\nWriting library : x264 core 124 r2197 69a0443\nEncoding settings : cabac=1 / ref=5 / deblock=1:0:0 / analyse=0x3:0x113 / me=umh / subme=8 / psy=1 / psy_rd=1.00:0.00 / mixed_ref=1 / me_range=16 / chroma_me=1 / trellis=1 / 8x8dct=1 / cqm=0 / deadzone=21,11 / fast_pskip=1 / chroma_qp_offset=-2 / threads=6 / sliced_threads=0 / nr=0 / decimate=1 / interlaced=0 / bluray_compat=0 / constrained_intra=0 / bframes=3 / b_pyramid=2 / b_adapt=2 / b_bias=0 / direct=3 / weightb=1 / open_gop=0 / weightp=2 / keyint=250 / keyint_min=23 / scenecut=40 / intra_refresh=0 / rc_lookahead=50 / rc=crf / mbtree=1 / crf=20.0 / qcomp=0.60 / qpmin=0 / qpmax=69 / qpstep=4 / ip_ratio=1.40 / aq=1:1.00\nDefault : Yes\nForced : No\n\nAudio\nID : 2\nFormat : AC-3\nFormat/Info : Audio Coding 3\nMode extension : CM (complete main)\nCodec ID : A_AC3\nDuration : 43mn 59s\nBit rate mode : Constant\nBit rate : 384 Kbps\nChannel(s) : 6 channels\nChannel positions : Front: L C R, Side: L R, LFE\nSampling rate : 48.0 KHz\nBit depth : 16 bits\nCompression mode : Lossy\nStream size : 121 MiB (9%)\nDefault : Yes\nForced : No\n--\n\nEnglish subtitle: No","torrent":{"xt":"urn:btih:9814c30f47f1c0f793571d7deac9bfe937bb2825","amp;dn":"The.Universe.S07E03.Our.Place.In.The.Milky.Way.720p.HDTV.x264-DH","amp;tr":["udp%3A%2F%2Ftracker.openbittorrent.com%3A80","udp%3A%2F%2Fopen.demonii.com%3A1337","udp%3A%2F%2Ftracker.coppersurfer.tk%3A6969","udp%3A%2F%2Fexodus.desync.com%3A6969"],"infoHash":"9814c30f47f1c0f793571d7deac9bfe937bb2825","infoHashBuffer":{"type":"Buffer","data":[152,20,195,15,71,241,192,247,147,87,29,125,234,201,191,233,55,187,40,37]},"announce":[],"urlList":[]}}